<svg width="205" height="27" viewBox="0 0 205 27" fill="none" xmlns="http://www.w3.org/2000/svg">
<path d="M12.6828 0.949219L9.23349 7.91016L1.48585 9.01758C1.02594 9.08789 0.654481 9.29883 0.371462 9.65039C0.123821 10.002 0 10.3887 0 10.8105C0.0353774 11.2324 0.212264 11.6016 0.53066 11.918L6.15566 17.3496L4.82901 25.0488C4.75826 25.4707 4.82901 25.8574 5.04127 26.209C5.28892 26.5957 5.625 26.8418 6.04953 26.9473C6.47406 27.0527 6.8809 27 7.27005 26.7891L14.2217 23.2031L21.1733 26.7891C21.5625 27 21.9693 27.0527 22.3939 26.9473C22.8184 26.8418 23.1368 26.5957 23.3491 26.209C23.5967 25.8574 23.6851 25.4707 23.6144 25.0488L22.2877 17.3496L27.9127 11.918C28.2311 11.6016 28.3903 11.2324 28.3903 10.8105C28.4257 10.3887 28.3019 10.002 28.0189 9.65039C27.7712 9.29883 27.4175 9.08789 26.9575 9.01758L19.2099 7.91016L15.7606 0.949219C15.5483 0.527344 15.23 0.246094 14.8054 0.105469C14.4163 -0.0351562 14.0094 -0.0351562 13.5849 0.105469C13.1958 0.246094 12.895 0.527344 12.6828 0.949219Z" fill="#D2C58D"/>
<path d="M56.8337 0.949219L53.3844 7.91016L45.6368 9.01758C45.1769 9.08789 44.8054 9.29883 44.5224 9.65039C44.2748 10.002 44.1509 10.3887 44.1509 10.8105C44.1863 11.2324 44.3632 11.6016 44.6816 11.918L50.3066 17.3496L48.98 25.0488C48.9092 25.4707 48.98 25.8574 49.1922 26.209C49.4399 26.5957 49.7759 26.8418 50.2005 26.9473C50.625 27.0527 51.0318 27 51.421 26.7891L58.3726 23.2031L65.3243 26.7891C65.7134 27 66.1203 27.0527 66.5448 26.9473C66.9693 26.8418 67.2877 26.5957 67.5 26.209C67.7476 25.8574 67.8361 25.4707 67.7653 25.0488L66.4387 17.3496L72.0637 11.918C72.3821 11.6016 72.5413 11.2324 72.5413 10.8105C72.5767 10.3887 72.4528 10.002 72.1698 9.65039C71.9222 9.29883 71.5684 9.08789 71.1085 9.01758L63.3609 7.91016L59.9116 0.949219C59.6993 0.527344 59.3809 0.246094 58.9564 0.105469C58.5672 -0.0351562 58.1604 -0.0351562 57.7359 0.105469C57.3467 0.246094 57.046 0.527344 56.8337 0.949219Z" fill="#D2C58D"/>
<path d="M100.985 0.949219L97.5354 7.91016L89.7877 9.01758C89.3278 9.08789 88.9564 9.29883 88.6734 9.65039C88.4257 10.002 88.3019 10.3887 88.3019 10.8105C88.3373 11.2324 88.5142 11.6016 88.8326 11.918L94.4576 17.3496L93.1309 25.0488C93.0601 25.4707 93.1309 25.8574 93.3432 26.209C93.5908 26.5957 93.9269 26.8418 94.3514 26.9473C94.7759 27.0527 95.1828 27 95.5719 26.7891L102.524 23.2031L109.475 26.7891C109.864 27 110.271 27.0527 110.696 26.9473C111.12 26.8418 111.439 26.5957 111.651 26.209C111.899 25.8574 111.987 25.4707 111.916 25.0488L110.59 17.3496L116.215 11.918C116.533 11.6016 116.692 11.2324 116.692 10.8105C116.728 10.3887 116.604 10.002 116.321 9.65039C116.073 9.29883 115.719 9.08789 115.259 9.01758L107.512 7.91016L104.063 0.949219C103.85 0.527344 103.532 0.246094 103.107 0.105469C102.718 -0.0351562 102.311 -0.0351562 101.887 0.105469C101.498 0.246094 101.197 0.527344 100.985 0.949219Z" fill="#D2C58D"/>
<path d="M145.136 0.949219L141.686 7.91016L133.939 9.01758C133.479 9.08789 133.107 9.29883 132.824 9.65039C132.577 10.002 132.453 10.3887 132.453 10.8105C132.488 11.2324 132.665 11.6016 132.983 11.918L138.608 17.3496L137.282 25.0488C137.211 25.4707 137.282 25.8574 137.494 26.209C137.742 26.5957 138.078 26.8418 138.502 26.9473C138.927 27.0527 139.334 27 139.723 26.7891L146.675 23.2031L153.626 26.7891C154.015 27 154.422 27.0527 154.847 26.9473C155.271 26.8418 155.59 26.5957 155.802 26.209C156.05 25.8574 156.138 25.4707 156.067 25.0488L154.741 17.3496L160.366 11.918C160.684 11.6016 160.843 11.2324 160.843 10.8105C160.879 10.3887 160.755 10.002 160.472 9.65039C160.224 9.29883 159.87 9.08789 159.41 9.01758L151.663 7.91016L148.213 0.949219C148.001 0.527344 147.683 0.246094 147.258 0.105469C146.869 -0.0351562 146.462 -0.0351562 146.038 0.105469C145.649 0.246094 145.348 0.527344 145.136 0.949219Z" fill="#D2C58D"/>
<path d="M189.287 0.949219L185.837 7.91016L178.09 9.01758C177.63 9.08789 177.258 9.29883 176.975 9.65039C176.728 10.002 176.604 10.3887 176.604 10.8105C176.639 11.2324 176.816 11.6016 177.134 11.918L182.759 17.3496L181.433 25.0488C181.362 25.4707 181.433 25.8574 181.645 26.209C181.893 26.5957 182.229 26.8418 182.653 26.9473C183.078 27.0527 183.485 27 183.874 26.7891L190.825 23.2031L197.777 26.7891C198.166 27 198.573 27.0527 198.998 26.9473C199.422 26.8418 199.741 26.5957 199.953 26.209C200.2 25.8574 200.289 25.4707 200.218 25.0488L198.892 17.3496L204.517 11.918C204.835 11.6016 204.994 11.2324 204.994 10.8105C205.029 10.3887 204.906 10.002 204.623 9.65039C204.375 9.29883 204.021 9.08789 203.561 9.01758L195.814 7.91016L192.364 0.949219C192.152 0.527344 191.834 0.246094 191.409 0.105469C191.02 -0.0351562 190.613 -0.0351562 190.189 0.105469C189.8 0.246094 189.499 0.527344 189.287 0.949219Z" fill="#D2C58D"/>
</svg>
