<svg width="28" height="29" viewBox="0 0 28 29" fill="none" xmlns="http://www.w3.org/2000/svg">
<rect x="4.79468" y="5.59668" width="18.4762" height="17.8391" fill="white"/>
<path d="M16.6797 14.5C16.6797 15.98 15.48 17.1797 14 17.1797C12.52 17.1797 11.3203 15.98 11.3203 14.5C11.3203 13.02 12.52 11.8203 14 11.8203C15.48 11.8203 16.6797 13.02 16.6797 14.5Z" fill="#747474"/>
<path d="M20.2668 9.759C20.138 9.40994 19.9325 9.09399 19.6655 8.83466C19.4062 8.56763 19.0904 8.36212 18.7411 8.23331C18.4579 8.12329 18.0323 7.99234 17.2486 7.95666C16.4007 7.918 16.1465 7.90967 14 7.90967C11.8533 7.90967 11.5991 7.91779 10.7514 7.95645C9.96765 7.99234 9.5419 8.12329 9.25885 8.23331C8.90958 8.36212 8.59363 8.56763 8.3345 8.83466C8.06747 9.09399 7.86197 9.40973 7.73294 9.759C7.62293 10.0423 7.49197 10.468 7.4563 11.2518C7.41763 12.0995 7.4093 12.3537 7.4093 14.5004C7.4093 16.6468 7.41763 16.9011 7.4563 17.7489C7.49197 18.5327 7.62293 18.9583 7.73294 19.2415C7.86197 19.5908 8.06726 19.9065 8.33429 20.1659C8.59363 20.4329 8.90936 20.6384 9.25864 20.7672C9.5419 20.8774 9.96765 21.0084 10.7514 21.0441C11.5991 21.0827 11.8531 21.0909 13.9998 21.0909C16.1467 21.0909 16.4009 21.0827 17.2484 21.0441C18.0321 21.0084 18.4579 20.8774 18.7411 20.7672C19.4423 20.4968 19.9964 19.9426 20.2668 19.2415C20.3769 18.9583 20.5078 18.5327 20.5437 17.7489C20.5824 16.9011 20.5905 16.6468 20.5905 14.5004C20.5905 12.3537 20.5824 12.0995 20.5437 11.2518C20.508 10.468 20.3771 10.0423 20.2668 9.759ZM14 18.6282C11.72 18.6282 9.87173 16.7802 9.87173 14.5002C9.87173 12.2202 11.72 10.3721 14 10.3721C16.2798 10.3721 18.1281 12.2202 18.1281 14.5002C18.1281 16.7802 16.2798 18.6282 14 18.6282ZM18.2913 11.1736C17.7585 11.1736 17.3265 10.7417 17.3265 10.2089C17.3265 9.67612 17.7585 9.24417 18.2913 9.24417C18.824 9.24417 19.256 9.67612 19.256 10.2089C19.2558 10.7417 18.824 11.1736 18.2913 11.1736Z" fill="#747474"/>
<path d="M14 0.5C6.26919 0.5 0 6.76919 0 14.5C0 22.2308 6.26919 28.5 14 28.5C21.7308 28.5 28 22.2308 28 14.5C28 6.76919 21.7308 0.5 14 0.5ZM21.9906 17.8144C21.9517 18.6701 21.8156 19.2544 21.6169 19.7658C21.1993 20.8457 20.3457 21.6993 19.2658 22.1169C18.7546 22.3156 18.1701 22.4515 17.3146 22.4906C16.4573 22.5297 16.1834 22.5391 14.0002 22.5391C11.8168 22.5391 11.5431 22.5297 10.6856 22.4906C9.83008 22.4515 9.2456 22.3156 8.7344 22.1169C8.19778 21.9151 7.71201 21.5987 7.31039 21.1896C6.90152 20.7882 6.58514 20.3022 6.38327 19.7658C6.1846 19.2546 6.04852 18.6701 6.00964 17.8146C5.97012 16.9571 5.96094 16.6832 5.96094 14.5C5.96094 12.3168 5.97012 12.0429 6.00943 11.1856C6.04831 10.3299 6.18417 9.74561 6.38284 9.23419C6.58472 8.69778 6.90131 8.21179 7.31039 7.81039C7.71179 7.40131 8.19778 7.08493 8.73419 6.88306C9.24561 6.68439 9.82986 6.54852 10.6856 6.50943C11.5429 6.47034 11.8168 6.46094 14 6.46094C16.1832 6.46094 16.4571 6.47034 17.3144 6.50964C18.1701 6.54852 18.7544 6.68439 19.2658 6.88284C19.8022 7.08472 20.2882 7.40131 20.6898 7.81039C21.0987 8.21201 21.4153 8.69778 21.6169 9.23419C21.8158 9.74561 21.9517 10.3299 21.9908 11.1856C22.0299 12.0429 22.0391 12.3168 22.0391 14.5C22.0391 16.6832 22.0299 16.9571 21.9906 17.8144Z" fill="#747474"/>
</svg>
