<svg width="29" height="34" viewBox="0 0 29 34" fill="none" xmlns="http://www.w3.org/2000/svg">
<path d="M14.0558 8.22992C14.9903 8.22992 15.8792 7.85005 16.5174 7.17389C17.8546 5.78354 17.8546 3.58035 16.5098 2.19L14.5953 0.229858C14.299 -0.0740381 13.8204 -0.0740381 13.5241 0.214663L13.5089 0.229858L11.5867 2.19757C10.2496 3.58792 10.2496 5.78354 11.5867 7.17389C12.2325 7.85006 13.1214 8.22992 14.0559 8.22992H14.0558ZM12.6807 3.2536L14.0558 1.84811L15.4234 3.24603C16.1983 4.05137 16.1983 5.3201 15.4234 6.11786C14.7092 6.87 13.5089 6.90042 12.7567 6.18624L12.6883 6.11786C11.9134 5.32016 11.9134 4.05895 12.6807 3.25367L12.6807 3.2536Z" fill="white"/>
<path d="M24.3425 15.6145H17.8543V10.6914C17.8543 9.43779 16.8514 8.39697 15.5979 8.39697H12.5134C11.2598 8.39697 10.257 9.43022 10.257 10.6914V15.6145H3.76883C1.67955 15.6145 0.000520986 17.3315 0.000520986 19.4284V28.1653C-0.0146738 28.5679 0.304417 28.9022 0.707087 28.9098H0.737477H1.59596L2.32531 31.303C2.81154 32.906 4.28545 34.0001 5.95684 34.0001H22.1623C23.8337 33.9925 25.3076 32.8985 25.7938 31.303L26.5232 28.9098H27.3817C27.7843 28.9174 28.111 28.5907 28.111 28.1957V28.1653V19.4284C28.111 17.3315 26.432 15.6145 24.3427 15.6145L24.3425 15.6145ZM11.7761 10.6914C11.7685 10.2735 12.0952 9.93159 12.5055 9.91645H12.5131H15.5976C16.0154 9.92405 16.3422 10.2659 16.3345 10.6838V10.6914V15.6145H11.7761L11.7761 10.6914ZM3.76855 17.134H24.3348C25.5884 17.134 26.5837 18.1672 26.5837 19.4284V23.5765C25.596 23.4854 25.0034 23.2195 24.3424 22.9156C23.4915 22.5281 22.5342 22.0875 20.7032 22.0875C18.8722 22.0875 17.915 22.5281 17.064 22.9156C16.2511 23.2879 15.5521 23.6069 14.0479 23.6069C12.5436 23.6069 11.8446 23.2878 11.0317 22.9156C10.1808 22.5281 9.21589 22.0875 7.38494 22.0875C5.554 22.0875 4.60432 22.5281 3.75341 22.9156C3.09244 23.2195 2.49983 23.4854 1.51215 23.5765V19.4284C1.51975 18.1672 2.51504 17.134 3.76855 17.134ZM1.51972 27.3907V25.0963C2.8113 24.9975 3.66978 24.6253 4.39155 24.2986C5.20447 23.9263 5.90346 23.6072 7.40009 23.6072C8.89671 23.6072 9.59571 23.9263 10.4086 24.2986C11.2595 24.6861 12.2244 25.1267 14.0554 25.1267C15.8863 25.1267 16.8512 24.6861 17.7021 24.2986C18.515 23.9263 19.214 23.6072 20.7183 23.6072C22.2226 23.6072 22.9063 23.9263 23.7193 24.2986C24.441 24.6329 25.2995 24.9975 26.5911 25.0963V27.3907H1.51972ZM24.3345 30.8475C24.0458 31.8124 23.1645 32.4734 22.154 32.481H5.94854C4.94565 32.4734 4.06439 31.8124 3.76806 30.8475L3.17547 28.9102H24.9268L24.3345 30.8475Z" fill="white"/>
</svg>
