<svg width="29" height="28" viewBox="0 0 29 28" fill="none" xmlns="http://www.w3.org/2000/svg">
<rect x="5.61462" y="5.09686" width="18.4762" height="17.8391" fill="black"/>
<path d="M17.4996 14C17.4996 15.48 16.2999 16.6797 14.8199 16.6797C13.34 16.6797 12.1403 15.48 12.1403 14C12.1403 12.52 13.34 11.3203 14.8199 11.3203C16.2999 11.3203 17.4996 12.52 17.4996 14Z" fill="#D9CE90"/>
<path d="M21.0868 9.25885C20.958 8.90979 20.7525 8.59384 20.4854 8.3345C20.2261 8.06747 19.9104 7.86197 19.5611 7.73315C19.2778 7.62314 18.8523 7.49219 18.0685 7.45651C17.2206 7.41785 16.9664 7.40952 14.8199 7.40952C12.6732 7.40952 12.419 7.41763 11.5714 7.4563C10.7876 7.49219 10.3618 7.62314 10.0788 7.73315C9.72952 7.86197 9.41357 8.06747 9.15445 8.3345C8.88742 8.59384 8.68192 8.90958 8.55289 9.25885C8.44287 9.54211 8.31192 9.96787 8.27625 10.7516C8.23758 11.5993 8.22925 11.8535 8.22925 14.0002C8.22925 16.1467 8.23758 16.4009 8.27625 17.2488C8.31192 18.0326 8.44287 18.4581 8.55289 18.7414C8.68192 19.0906 8.88721 19.4064 9.15424 19.6657C9.41357 19.9327 9.72931 20.1382 10.0786 20.2671C10.3618 20.3773 10.7876 20.5082 11.5714 20.5439C12.419 20.5826 12.673 20.5907 14.8197 20.5907C16.9666 20.5907 17.2209 20.5826 18.0683 20.5439C18.8521 20.5082 19.2778 20.3773 19.5611 20.2671C20.2622 19.9966 20.8163 19.4425 21.0868 18.7414C21.1968 18.4581 21.3278 18.0326 21.3636 17.2488C21.4023 16.4009 21.4104 16.1467 21.4104 14.0002C21.4104 11.8535 21.4023 11.5993 21.3636 10.7516C21.328 9.96787 21.197 9.54211 21.0868 9.25885ZM14.8199 18.1281C12.5399 18.1281 10.6917 16.28 10.6917 14C10.6917 11.72 12.5399 9.87195 14.8199 9.87195C17.0997 9.87195 18.948 11.72 18.948 14C18.948 16.28 17.0997 18.1281 14.8199 18.1281ZM19.1112 10.6735C18.5784 10.6735 18.1465 10.2415 18.1465 9.70874C18.1465 9.17596 18.5784 8.74402 19.1112 8.74402C19.644 8.74402 20.0759 9.17596 20.0759 9.70874C20.0757 10.2415 19.644 10.6735 19.1112 10.6735Z" fill="#CDBF83"/>
<path d="M14.8199 0C7.08914 0 0.819946 6.26919 0.819946 14C0.819946 21.7308 7.08914 28 14.8199 28C22.5507 28 28.8199 21.7308 28.8199 14C28.8199 6.26919 22.5507 0 14.8199 0ZM22.8105 17.3144C22.7716 18.1701 22.6356 18.7544 22.4369 19.2658C22.0193 20.3457 21.1656 21.1993 20.0858 21.6169C19.5746 21.8156 18.9901 21.9515 18.1345 21.9906C17.2773 22.0297 17.0034 22.0391 14.8202 22.0391C12.6367 22.0391 12.3631 22.0297 11.5056 21.9906C10.65 21.9515 10.0656 21.8156 9.55435 21.6169C9.01773 21.4151 8.53195 21.0987 8.13034 20.6896C7.72147 20.2882 7.40509 19.8022 7.20322 19.2658C7.00455 18.7546 6.86847 18.1701 6.82959 17.3146C6.79007 16.4571 6.78088 16.1832 6.78088 14C6.78088 11.8168 6.79007 11.5429 6.82938 10.6856C6.86826 9.82986 7.00412 9.24561 7.20279 8.73419C7.40466 8.19778 7.72125 7.71179 8.13034 7.31039C8.53174 6.90131 9.01773 6.58493 9.55414 6.38306C10.0656 6.18439 10.6498 6.04852 11.5056 6.00943C12.3629 5.97034 12.6367 5.96094 14.8199 5.96094C17.0032 5.96094 17.277 5.97034 18.1343 6.00964C18.9901 6.04852 19.5743 6.18439 20.0858 6.38284C20.6222 6.58472 21.1082 6.90131 21.5098 7.31039C21.9186 7.71201 22.2352 8.19778 22.4369 8.73419C22.6358 9.24561 22.7716 9.82986 22.8107 10.6856C22.8498 11.5429 22.859 11.8168 22.859 14C22.859 16.1832 22.8498 16.4571 22.8105 17.3144Z" fill="#CDBF83"/>
</svg>
