<svg width="29" height="28" viewBox="0 0 29 28" fill="none" xmlns="http://www.w3.org/2000/svg">
<path d="M14.9302 0C22.6446 0 28.8976 6.25388 28.8976 13.9674C28.8976 21.6818 22.6446 27.9347 14.9302 27.9347C7.21581 27.9347 0.962891 21.6817 0.962891 13.9674C0.962891 6.25388 7.21591 0 14.9302 0Z" fill="#CDBF83"/>
<path d="M14.6771 5.14285C11.2111 5.14285 8.39136 7.96262 8.39136 11.4286C8.39136 12.5996 8.71574 13.7424 9.32964 14.7339L14.3193 22.7746C14.4149 22.9286 14.5832 23.0222 14.7643 23.0222C14.7657 23.0222 14.7671 23.0222 14.7685 23.0222C14.9512 23.0208 15.1199 22.9243 15.2137 22.7676L20.0762 14.6489C20.6562 13.6784 20.9628 12.5648 20.9628 11.4286C20.9628 7.96262 18.143 5.14285 14.6771 5.14285ZM19.1772 14.1111L14.7564 21.4922L10.22 14.1819C9.70905 13.3567 9.43199 12.4046 9.43199 11.4286C9.43199 8.54028 11.7888 6.18349 14.6771 6.18349C17.5654 6.18349 19.9187 8.54028 19.9187 11.4286C19.9187 12.3756 19.6599 13.3034 19.1772 14.1111Z" fill="black" stroke="#121212" stroke-width="0.5"/>
<path d="M14.677 8.28571C12.9441 8.28571 11.5342 9.69559 11.5342 11.4286C11.5342 13.1505 12.9211 14.5714 14.677 14.5714C16.4546 14.5714 17.8199 13.1315 17.8199 11.4286C17.8199 9.69559 16.41 8.28571 14.677 8.28571ZM14.677 13.5308C13.5157 13.5308 12.5748 12.5868 12.5748 11.4286C12.5748 10.2732 13.5217 9.32634 14.677 9.32634C15.8324 9.32634 16.7758 10.2732 16.7758 11.4286C16.7758 12.5699 15.8568 13.5308 14.677 13.5308Z" fill="black" stroke="#121212" stroke-width="0.5"/>
</svg>
