<svg width="36" height="36" viewBox="0 0 36 36" fill="none" xmlns="http://www.w3.org/2000/svg">
<path d="M16.9739 7.88087H21.6936V13.778C21.6936 14.0887 21.9455 14.3405 22.2561 14.3405C22.5667 14.3405 22.8186 14.0887 22.8186 13.778V7.31863C22.8186 7.008 22.5667 6.75613 22.2561 6.75613H16.9739C16.6632 6.75613 16.4114 7.008 16.4114 7.31863C16.4114 7.62926 16.6632 7.88113 16.9739 7.88113V7.88087Z" fill="white"/>
<path d="M21.6937 18.3002V23.6537V23.6534C21.6937 23.9643 21.9456 24.2159 22.2562 24.2159C22.5669 24.2159 22.8187 23.9643 22.8187 23.6534V18.3002C22.8187 17.9896 22.5669 17.7377 22.2562 17.7377C21.9456 17.7377 21.6937 17.9896 21.6937 18.3002V18.3002Z" fill="white"/>
<path d="M22.2563 26.9775C21.9456 26.9775 21.6938 27.2294 21.6938 27.54V34.875H1.125V7.88089H5.89716C6.20779 7.88089 6.45966 7.62902 6.45966 7.31839C6.45966 7.00776 6.20779 6.75589 5.89716 6.75589H0.562498C0.251871 6.75589 0 7.00776 0 7.31839V35.4375C0 35.7481 0.251871 36 0.562498 36H22.2563C22.5669 36 22.8188 35.7481 22.8188 35.4375V27.54C22.8188 27.2294 22.5669 26.9775 22.2563 26.9775Z" fill="white"/>
<path d="M20.2936 14.3408C20.6042 14.3408 20.8561 14.089 20.8561 13.7783V9.27835C20.8561 8.96772 20.6042 8.71585 20.2936 8.71585H2.52575C2.21513 8.71585 1.96326 8.96772 1.96326 9.27835V33.4748C1.96326 33.7854 2.21513 34.0373 2.52575 34.0373H20.2936C20.6042 34.0373 20.8561 33.7854 20.8561 33.4748V27.9555C20.8561 27.6449 20.6042 27.393 20.2936 27.393C19.983 27.393 19.7311 27.6449 19.7311 27.9555V32.9123H3.08825V9.84406H19.7311V13.7785C19.7311 14.0892 19.983 14.341 20.2936 14.341V14.3408Z" fill="white"/>
<path d="M19.7311 17.5661V24.2865V24.2862C19.7311 24.5968 19.9829 24.8487 20.2936 24.8487C20.6042 24.8487 20.8561 24.5968 20.8561 24.2862V17.5658V17.5661C20.8561 17.2554 20.6042 17.0036 20.2936 17.0036C19.9829 17.0036 19.7311 17.2554 19.7311 17.5661Z" fill="white"/>
<path d="M7.73939 7.88072H15.0789C15.2516 7.88097 15.4151 7.80136 15.5218 7.66551C15.6286 7.52941 15.667 7.35187 15.6255 7.18387L15.1374 5.20008V5.20034C15.0758 4.94847 14.8504 4.77143 14.5914 4.77118H8.2277C7.96855 4.77143 7.74305 4.94847 7.68152 5.20034L7.19335 7.18386C7.15217 7.35161 7.19034 7.52915 7.29681 7.66525C7.40354 7.80111 7.56651 7.88071 7.73928 7.88071L7.73939 7.88072ZM8.66851 5.89616H14.1503L14.361 6.75572H8.45729L8.66851 5.89616Z" fill="white"/>
<path d="M35.4374 5.03998e-05H34.1625C33.8519 5.03998e-05 33.6 0.251921 33.6 0.562548C33.6 0.873176 33.8519 1.12505 34.1625 1.12505H34.8749V5.70539C34.8749 7.24676 34.0525 8.67133 32.7175 9.44198C31.3826 10.2126 29.7378 10.2126 28.4029 9.44198C27.0677 8.67133 26.2453 7.24676 26.2453 5.70539V1.12505H27.2676C27.5782 1.12505 27.8301 0.873176 27.8301 0.562548C27.8301 0.251921 27.5782 5.03998e-05 27.2676 5.03998e-05H25.6829C25.3722 5.03998e-05 25.1204 0.251921 25.1204 0.562548V5.70539C25.1221 7.05037 25.6216 8.34739 26.5225 9.34632C27.4233 10.3453 28.662 10.9756 30 11.1157V12.7303C30 20.6053 24.4222 25.4839 19.254 25.4839V25.4842C17.999 25.5188 16.7854 25.0322 15.9021 24.1397C15.019 23.2472 14.5449 22.0288 14.5928 20.7742C14.5735 19.604 15.0062 18.4713 15.801 17.6121C16.8165 16.6263 18.1961 16.107 19.6094 16.1788C21.6268 16.1788 23.9406 17.5601 26.486 20.2835C26.6982 20.5115 27.0547 20.5241 27.2825 20.3122C27.5103 20.1 27.5231 19.7434 27.3109 19.5156C24.5441 16.5554 21.9536 15.0538 19.6121 15.0538C17.8902 14.978 16.2145 15.6243 14.9893 16.8367C13.9946 17.9044 13.4507 19.315 13.4706 20.7742C13.4314 22.3248 14.0268 23.8242 15.1192 24.9256C16.2112 26.027 17.7056 26.6352 19.2568 26.6091C26.5898 26.6091 31.1277 19.4091 31.1277 12.7344V11.1157C32.4642 10.9738 33.7009 10.3428 34.6004 9.34402C35.4997 8.34535 35.9981 7.04935 35.9997 5.70534V0.562498C35.9997 0.251871 35.7478 0 35.4372 0L35.4374 5.03998e-05Z" fill="white"/>
<path d="M33.017 26.2073C32.7825 26.2108 32.5495 26.2452 32.324 26.31C31.4772 24.8867 30.5508 23.5123 29.5492 22.1932C29.3611 21.9461 29.008 21.8979 28.7609 22.086C28.5135 22.2741 28.4656 22.6272 28.6537 22.8743C29.6147 24.1431 30.5058 25.4633 31.3235 26.8291C30.6781 27.37 30.3268 28.1846 30.3763 29.0254C30.4258 29.8661 30.87 30.6338 31.5744 31.0953C32.2788 31.5569 33.1602 31.658 33.9507 31.3678C34.7412 31.0775 35.3479 30.4301 35.5862 29.6225C35.8248 28.8147 35.6668 27.9418 35.1603 27.2689C34.6541 26.5959 33.8593 26.2024 33.017 26.2074V26.2073ZM33.017 30.4388C32.6052 30.4388 32.2099 30.2751 31.9186 29.9838C31.6274 29.6925 31.4639 29.2975 31.4639 28.8854C31.4639 28.4736 31.6274 28.0786 31.9186 27.7873C32.2099 27.496 32.6052 27.3323 33.017 27.3323C33.4288 27.3323 33.8241 27.496 34.1154 27.7873C34.4067 28.0786 34.5702 28.4736 34.5702 28.8854C34.5699 29.2973 34.4062 29.6923 34.1149 29.9833C33.8236 30.2746 33.4289 30.4383 33.017 30.4388L33.017 30.4388Z" fill="white"/>
<path d="M15.3 13.6029C15.3 13.2923 15.0481 13.0404 14.7375 13.0404H5.625C5.31437 13.0404 5.0625 13.2923 5.0625 13.6029C5.0625 13.9135 5.31437 14.1654 5.625 14.1654H14.7407C15.0501 14.1639 15.3002 13.9125 15.3002 13.6029H15.3Z" fill="white"/>
<path d="M11.9821 17.0036H5.62512C5.31449 17.0036 5.06262 17.2554 5.06262 17.5661C5.06262 17.8767 5.31449 18.1286 5.62512 18.1286H11.9806C12.2912 18.1286 12.5431 17.8767 12.5431 17.5661C12.5431 17.2554 12.2912 17.0036 11.9806 17.0036H11.9821Z" fill="white"/>
<path d="M5.625 22.0911H11.9805C12.2911 22.0911 12.543 21.8392 12.543 21.5286C12.543 21.2179 12.2911 20.9661 11.9805 20.9661H5.625C5.31437 20.9661 5.0625 21.2179 5.0625 21.5286C5.0625 21.8392 5.31437 22.0911 5.625 22.0911Z" fill="white"/>
<path d="M5.625 26.0543H11.9805C12.2911 26.0543 12.543 25.8024 12.543 25.4918C12.543 25.1812 12.2911 24.9293 11.9805 24.9293H5.625C5.31437 24.9293 5.0625 25.1812 5.0625 25.4918C5.0625 25.8024 5.31437 26.0543 5.625 26.0543Z" fill="white"/>
<path d="M5.625 30.0169H17.2195C17.5302 30.0169 17.782 29.7651 17.782 29.4544C17.782 29.1438 17.5302 28.8919 17.2195 28.8919H5.625C5.31437 28.8919 5.0625 29.1438 5.0625 29.4544C5.0625 29.7651 5.31437 30.0169 5.625 30.0169Z" fill="white"/>
</svg>
