<svg width="16" height="21" viewBox="0 0 16 21" fill="none" xmlns="http://www.w3.org/2000/svg">
<path d="M8 0.5C4.1402 0.5 1 3.65422 1 7.53125C1 8.84117 1.36124 10.1195 2.04491 11.2286L7.60154 20.223C7.70798 20.3953 7.89551 20.5 8.09718 20.5C8.09874 20.5 8.10026 20.5 8.10181 20.5C8.30524 20.4984 8.49315 20.3905 8.59764 20.2152L14.0127 11.1336C14.6586 10.048 15 8.80231 15 7.53125C15 3.65422 11.8598 0.5 8 0.5ZM13.0115 10.532L8.08836 18.7885L3.03649 10.6112C2.46743 9.68805 2.15889 8.62305 2.15889 7.53125C2.15889 4.30039 4.7835 1.66406 8 1.66406C11.2165 1.66406 13.8372 4.30039 13.8372 7.53125C13.8372 8.59066 13.549 9.62844 13.0115 10.532Z" fill="#BAA773" stroke="#BAA773" stroke-width="0.5"/>
<path d="M8 3.5C5.7944 3.5 4 5.2944 4 7.5C4 9.69151 5.7652 11.5 8 11.5C10.2624 11.5 12 9.66742 12 7.5C12 5.2944 10.2056 3.5 8 3.5ZM8 10.1756C6.52191 10.1756 5.32444 8.97409 5.32444 7.5C5.32444 6.0296 6.5296 4.82444 8 4.82444C9.4704 4.82444 10.6711 6.0296 10.6711 7.5C10.6711 8.95258 9.50151 10.1756 8 10.1756Z" fill="#BAA773" stroke="#BAA773" stroke-width="0.5"/>
</svg>
