<svg width="36" height="36" viewBox="0 0 36 36" fill="none" xmlns="http://www.w3.org/2000/svg">
<path d="M16.9736 7.88084H21.6933V13.778C21.6933 14.0886 21.9452 14.3405 22.2558 14.3405C22.5665 14.3405 22.8183 14.0886 22.8183 13.778V7.3186C22.8183 7.00797 22.5665 6.7561 22.2558 6.7561H16.9736C16.663 6.7561 16.4111 7.00797 16.4111 7.3186C16.4111 7.62923 16.663 7.8811 16.9736 7.8811V7.88084Z" fill="white"/>
<path d="M21.6934 18.3002V23.6537V23.6534C21.6934 23.9643 21.9452 24.2159 22.2559 24.2159C22.5665 24.2159 22.8184 23.9643 22.8184 23.6534V18.3002C22.8184 17.9895 22.5665 17.7377 22.2559 17.7377C21.9452 17.7377 21.6934 17.9895 21.6934 18.3002V18.3002Z" fill="white"/>
<path d="M22.2563 26.9775C21.9456 26.9775 21.6938 27.2294 21.6938 27.54V34.875H1.125V7.88086H5.89716C6.20779 7.88086 6.45966 7.62898 6.45966 7.31836C6.45966 7.00773 6.20779 6.75586 5.89716 6.75586H0.562498C0.251871 6.75586 0 7.00773 0 7.31836V35.4375C0 35.7481 0.251871 36 0.562498 36H22.2563C22.5669 36 22.8188 35.7481 22.8188 35.4375V27.54C22.8188 27.2294 22.5669 26.9775 22.2563 26.9775Z" fill="white"/>
<path d="M20.2933 14.3408C20.6039 14.3408 20.8558 14.0889 20.8558 13.7783V9.27832C20.8558 8.96769 20.6039 8.71582 20.2933 8.71582H2.52539C2.21476 8.71582 1.96289 8.96769 1.96289 9.27832V33.4747C1.96289 33.7854 2.21476 34.0372 2.52539 34.0372H20.2933C20.6039 34.0372 20.8558 33.7854 20.8558 33.4747V27.9555C20.8558 27.6449 20.6039 27.393 20.2933 27.393C19.9826 27.393 19.7308 27.6449 19.7308 27.9555V32.9122H3.08789V9.84403H19.7308V13.7785C19.7308 14.0891 19.9826 14.341 20.2933 14.341V14.3408Z" fill="white"/>
<path d="M19.7314 17.566V24.2864V24.2862C19.7314 24.5968 19.9833 24.8487 20.2939 24.8487C20.6046 24.8487 20.8564 24.5968 20.8564 24.2862V17.5658V17.566C20.8564 17.2554 20.6046 17.0035 20.2939 17.0035C19.9833 17.0035 19.7314 17.2554 19.7314 17.566Z" fill="white"/>
<path d="M7.73903 7.88078H15.0785C15.2513 7.88103 15.4147 7.80143 15.5215 7.66557C15.6282 7.52947 15.6666 7.35193 15.6252 7.18393L15.137 5.20015V5.2004C15.0755 4.94853 14.85 4.77149 14.5911 4.77124H8.22733C7.96819 4.77149 7.74268 4.94853 7.68116 5.2004L7.19299 7.18393C7.1518 7.35167 7.18997 7.52921 7.29645 7.66531C7.40317 7.80117 7.56614 7.88077 7.73891 7.88077L7.73903 7.88078ZM8.66815 5.89622H14.15L14.3606 6.75578H8.45692L8.66815 5.89622Z" fill="white"/>
<path d="M35.4374 5.03998e-05H34.1625C33.8519 5.03998e-05 33.6 0.251921 33.6 0.562548C33.6 0.873176 33.8519 1.12505 34.1625 1.12505H34.8749V5.70539C34.8749 7.24676 34.0525 8.67133 32.7175 9.44198C31.3826 10.2126 29.7378 10.2126 28.4029 9.44198C27.0677 8.67133 26.2453 7.24676 26.2453 5.70539V1.12505H27.2676C27.5782 1.12505 27.8301 0.873176 27.8301 0.562548C27.8301 0.251921 27.5782 5.03998e-05 27.2676 5.03998e-05H25.6829C25.3722 5.03998e-05 25.1204 0.251921 25.1204 0.562548V5.70539C25.1221 7.05037 25.6216 8.34739 26.5225 9.34632C27.4233 10.3453 28.662 10.9756 30 11.1157V12.7303C30 20.6053 24.4222 25.4839 19.254 25.4839V25.4842C17.999 25.5188 16.7854 25.0322 15.9021 24.1397C15.019 23.2472 14.5449 22.0288 14.5928 20.7742C14.5735 19.604 15.0062 18.4713 15.801 17.6121C16.8165 16.6263 18.1961 16.107 19.6094 16.1788C21.6268 16.1788 23.9406 17.5601 26.486 20.2835C26.6982 20.5115 27.0547 20.5241 27.2825 20.3122C27.5103 20.1 27.5231 19.7434 27.3109 19.5156C24.5441 16.5554 21.9536 15.0538 19.6121 15.0538C17.8902 14.978 16.2145 15.6243 14.9893 16.8367C13.9946 17.9044 13.4507 19.315 13.4706 20.7742C13.4314 22.3248 14.0268 23.8242 15.1192 24.9256C16.2112 26.027 17.7056 26.6352 19.2568 26.6091C26.5898 26.6091 31.1277 19.4091 31.1277 12.7344V11.1157C32.4642 10.9738 33.7009 10.3428 34.6004 9.34402C35.4997 8.34535 35.9981 7.04935 35.9997 5.70534V0.562498C35.9997 0.251871 35.7478 0 35.4372 0L35.4374 5.03998e-05Z" fill="white"/>
<path d="M33.0173 26.2072C32.7827 26.2108 32.5497 26.2452 32.3242 26.31C31.4774 24.8866 30.5511 23.5123 29.5494 22.1932C29.3613 21.9461 29.0082 21.8979 28.7611 22.086C28.5138 22.274 28.4658 22.6271 28.6539 22.8742C29.6149 24.1431 30.5061 25.4632 31.3237 26.8291C30.6784 27.37 30.3271 28.1846 30.3766 29.0253C30.426 29.866 30.8702 30.6337 31.5746 31.0952C32.279 31.5568 33.1604 31.658 33.951 31.3677C34.7415 31.0774 35.3481 30.43 35.5864 29.6225C35.825 28.8147 35.6671 27.9417 35.1606 27.2688C34.6543 26.5958 33.8595 26.2023 33.0173 26.2073V26.2072ZM33.0173 30.4388C32.6054 30.4388 32.2102 30.275 31.9189 29.9838C31.6276 29.6925 31.4641 29.2974 31.4641 28.8854C31.4641 28.4735 31.6276 28.0785 31.9189 27.7873C32.2102 27.496 32.6055 27.3322 33.0173 27.3322C33.4291 27.3322 33.8244 27.496 34.1157 27.7873C34.4069 28.0785 34.5704 28.4736 34.5704 28.8854C34.5702 29.2972 34.4064 29.6922 34.1152 29.9832C33.8239 30.2745 33.4291 30.4383 33.0173 30.4388L33.0173 30.4388Z" fill="white"/>
<path d="M15.3 13.6029C15.3 13.2923 15.0481 13.0404 14.7375 13.0404H5.625C5.31437 13.0404 5.0625 13.2923 5.0625 13.6029C5.0625 13.9135 5.31437 14.1654 5.625 14.1654H14.7407C15.0501 14.1639 15.3002 13.9125 15.3002 13.6029H15.3Z" fill="white"/>
<path d="M11.982 17.0035H5.625C5.31437 17.0035 5.0625 17.2554 5.0625 17.566C5.0625 17.8767 5.31437 18.1285 5.625 18.1285H11.9805C12.2911 18.1285 12.543 17.8767 12.543 17.566C12.543 17.2554 12.2911 17.0035 11.9805 17.0035H11.982Z" fill="white"/>
<path d="M5.625 22.0911H11.9805C12.2911 22.0911 12.543 21.8392 12.543 21.5286C12.543 21.2179 12.2911 20.9661 11.9805 20.9661H5.625C5.31437 20.9661 5.0625 21.2179 5.0625 21.5286C5.0625 21.8392 5.31437 22.0911 5.625 22.0911Z" fill="white"/>
<path d="M5.625 26.0543H11.9805C12.2911 26.0543 12.543 25.8024 12.543 25.4918C12.543 25.1812 12.2911 24.9293 11.9805 24.9293H5.625C5.31437 24.9293 5.0625 25.1812 5.0625 25.4918C5.0625 25.8024 5.31437 26.0543 5.625 26.0543Z" fill="white"/>
<path d="M5.625 30.017H17.2195C17.5302 30.017 17.782 29.7651 17.782 29.4545C17.782 29.1438 17.5302 28.892 17.2195 28.892H5.625C5.31437 28.892 5.0625 29.1438 5.0625 29.4545C5.0625 29.7651 5.31437 30.017 5.625 30.017Z" fill="white"/>
</svg>
