<svg width="35" height="35" viewBox="0 0 35 35" fill="none" xmlns="http://www.w3.org/2000/svg">
<path d="M33.3062 11.2904H19.3159C19.4155 10.0585 19.5853 8.83346 19.824 7.62101C20.1256 6.12379 20.8169 4.73262 21.8278 3.58798C22.8389 2.44333 24.1337 1.5852 25.582 1.10081C25.8459 1.01412 26.0077 0.748246 25.9631 0.474052C25.9185 0.199607 25.6808 -0.00125117 25.4031 6.89875e-06C23.3416 -0.00251323 21.3386 0.685491 19.7138 1.9544C18.089 3.22304 16.9358 4.99949 16.4386 7.00001C16.0903 8.4055 15.8872 9.84324 15.8322 11.2903H1.69352C1.24443 11.2903 0.813452 11.4688 0.495968 11.7863C0.178484 12.1038 0 12.5348 0 12.9839V34.4355C0 34.5852 0.0594762 34.7288 0.165323 34.8347C0.271169 34.9405 0.41482 35 0.564516 35H34.4355C34.5852 35 34.7289 34.9405 34.8347 34.8347C34.9405 34.7288 35 34.5852 35 34.4355V12.9839C35 12.5348 34.8216 12.1038 34.5041 11.7863C34.1865 11.4688 33.7555 11.2903 33.3065 11.2903L33.3062 11.2904ZM1.1288 18.3471L2.25783 17.5004C2.75103 17.145 3.34351 16.954 3.95138 16.954C4.55925 16.954 5.15171 17.145 5.64493 17.5004L6.09655 17.8391C6.78055 18.3522 7.61242 18.6294 8.46751 18.6294C9.32261 18.6294 10.1545 18.3522 10.8385 17.8391L11.2901 17.5004C12.1096 16.9061 13.1805 16.7841 14.1127 17.1791V17.6493C14.1013 18.021 13.9547 18.3759 13.7001 18.6468C12.874 19.5785 12.4189 20.7809 12.4212 22.0258C12.4232 23.2705 12.8821 24.4714 13.711 25.4004C14.5399 26.3293 15.681 26.9213 16.9179 27.0644C17.1071 27.0856 17.2974 27.0967 17.4879 27.0972C18.7977 27.0994 20.0575 26.5957 21.0048 25.6914C21.9519 24.7869 22.5134 23.5518 22.5719 22.2436C22.6306 20.9352 22.1815 19.6549 21.3188 18.6696C21.052 18.3828 20.8985 18.0088 20.8869 17.6174V17.1791C21.8188 16.7839 22.8902 16.9057 23.7095 17.5004L24.1611 17.8391C24.8451 18.3522 25.677 18.6295 26.532 18.6295C27.3871 18.6295 28.219 18.3522 28.903 17.8391L29.3546 17.5004C29.8481 17.1456 30.4403 16.9546 31.0482 16.9546C31.6561 16.9546 32.2483 17.1456 32.7417 17.5004L33.8708 18.3472V30.484H1.12881L1.1288 18.3471ZM33.8708 12.9842V16.9359L33.4191 16.5971C32.7284 16.1002 31.899 15.8328 31.0482 15.8328C30.1973 15.8328 29.368 16.1001 28.6772 16.5971L28.2256 16.9359C27.7324 17.2912 27.1399 17.4822 26.532 17.4822C25.9242 17.4822 25.3317 17.2912 24.8385 16.9359L24.3869 16.5971C23.3766 15.8653 22.0849 15.641 20.8869 15.9893V12.4197H33.3062C33.4559 12.4197 33.5996 12.4792 33.7054 12.5851C33.8113 12.6909 33.8708 12.8346 33.8708 12.9842V12.9842ZM19.7578 12.4197V17.6173C19.7697 18.2826 20.0227 18.9212 20.4703 19.4142C21.1424 20.1806 21.492 21.1773 21.4466 22.1957C21.401 23.2141 20.9635 24.1755 20.2256 24.8792C19.4877 25.5825 18.5066 25.9737 17.4872 25.9706C16.4678 25.9676 15.4889 25.5707 14.7551 24.863C14.0215 24.1551 13.5898 23.1912 13.5502 22.1725C13.5106 21.1539 13.8662 20.1591 14.5429 19.3966C14.9816 18.9193 15.2304 18.2978 15.2417 17.6493V12.4197H15.8062V19.7701C15.2324 20.1987 14.8438 20.8301 14.7193 21.5354C14.5945 22.2406 14.7435 22.9669 15.1356 23.5664C15.5277 24.1657 16.1336 24.5931 16.8297 24.7614C17.0482 24.8128 17.2719 24.839 17.4965 24.8393C18.2911 24.8428 19.0502 24.5099 19.5862 23.9232C20.1225 23.3368 20.3857 22.5508 20.3106 21.7594C20.2357 20.9683 19.83 20.2455 19.1934 19.77V14.0069C19.1934 13.4777 19.2065 12.9487 19.233 12.4199L19.7578 12.4197ZM16.4837 20.6726C16.7639 20.4703 16.9315 20.1472 16.9353 19.8014V12.133C16.9353 10.4949 17.1364 8.86282 17.5335 7.27366C18.119 4.91908 19.7291 2.95107 21.9212 1.91075C20.2743 3.33391 19.1477 5.26411 18.7185 7.39792C18.284 9.57405 18.0648 11.7875 18.0643 14.007V19.8151C18.067 20.1544 18.2321 20.4714 18.5081 20.6687C18.9312 20.9799 19.1844 21.4711 19.193 21.9963C19.2016 22.5215 18.9642 23.0208 18.5514 23.3456C18.0738 23.7151 17.4357 23.8015 16.877 23.5727C16.3183 23.3438 15.9244 22.8345 15.8433 22.2362C15.7621 21.6379 16.0061 21.0419 16.4836 20.6727L16.4837 20.6726ZM1.69332 12.4197H14.1127V15.9885C12.9146 15.6402 11.6227 15.8648 10.6127 16.5971L10.1611 16.9358C9.66787 17.2912 9.07539 17.4822 8.46751 17.4822C7.85964 17.4822 7.26719 17.2912 6.77397 16.9358L6.32235 16.5971C5.63184 16.0999 4.80242 15.8323 3.95138 15.8323C3.10035 15.8323 2.27093 16.0999 1.58041 16.5971L1.1288 16.9358V12.9842C1.1288 12.6725 1.38158 12.4197 1.69332 12.4197V12.4197ZM33.8708 33.8714H1.1288V31.6133H33.8708V33.8714Z" fill="white"/>
<path d="M31.0481 22.5807C31.0481 23.2042 30.5426 23.7097 29.9191 23.7097C29.2956 23.7097 28.79 23.2042 28.79 22.5807C28.79 21.9572 29.2956 21.4517 29.9191 21.4517C30.5426 21.4517 31.0481 21.9572 31.0481 22.5807Z" fill="white"/>
<path d="M25.9671 26.5324C25.9671 27.1558 25.4615 27.6614 24.838 27.6614C24.2145 27.6614 23.709 27.1558 23.709 26.5324C23.709 25.9089 24.2145 25.4033 24.838 25.4033C25.4615 25.4033 25.9671 25.9089 25.9671 26.5324Z" fill="white"/>
<path d="M5.08033 20.3226C5.08033 20.9461 4.57479 21.4517 3.9513 21.4517C3.32781 21.4517 2.82227 20.9461 2.82227 20.3226C2.82227 19.6991 3.32781 19.1936 3.9513 19.1936C4.57479 19.1936 5.08033 19.6991 5.08033 20.3226Z" fill="white"/>
<path d="M9.59693 28.226C9.59693 28.8494 9.09139 29.355 8.4679 29.355C7.84441 29.355 7.33887 28.8494 7.33887 28.226C7.33887 27.6025 7.84441 27.0969 8.4679 27.0969C9.09139 27.0969 9.59693 27.6025 9.59693 28.226Z" fill="white"/>
<path d="M11.2903 22.5807C11.2903 23.2042 10.7848 23.7097 10.1613 23.7097C9.53777 23.7097 9.03223 23.2042 9.03223 22.5807C9.03223 21.9572 9.53777 21.4517 10.1613 21.4517C10.7848 21.4517 11.2903 21.9572 11.2903 22.5807Z" fill="white"/>
</svg>
