<?xml version="1.0" encoding="utf-8"?>
<!-- Generator: Adobe Illustrator 26.0.1, SVG Export Plug-In . SVG Version: 6.00 Build 0)  -->
<svg version="1.1" id="Layer_1" xmlns="http://www.w3.org/2000/svg" xmlns:xlink="http://www.w3.org/1999/xlink" x="0px" y="0px"
	 viewBox="0 0 22.5 20" enable-background="new 0 0 22.5 20" xml:space="preserve">
<path fill="#CDBF83" d="M10.1,0.7L7.6,5.9L1.8,6.7C1.4,6.7,1.1,6.9,0.9,7.1C0.8,7.4,0.7,7.7,0.7,8c0,0.3,0.2,0.6,0.4,0.8l4.2,4
	l-1,5.7c-0.1,0.3,0,0.6,0.2,0.9c0.2,0.3,0.4,0.5,0.8,0.5c0.3,0.1,0.6,0,0.9-0.1l5.2-2.7l5.2,2.7c0.3,0.2,0.6,0.2,0.9,0.1
	c0.3-0.1,0.6-0.3,0.7-0.5c0.2-0.3,0.3-0.5,0.2-0.9l-1-5.7l4.2-4c0.2-0.2,0.4-0.5,0.4-0.8c0-0.3-0.1-0.6-0.3-0.9
	c-0.2-0.3-0.4-0.4-0.8-0.5L15,5.9l-2.6-5.2c-0.2-0.3-0.4-0.5-0.7-0.6c-0.3-0.1-0.6-0.1-0.9,0C10.5,0.2,10.3,0.4,10.1,0.7z"/>
</svg>
